<?xml version="1.0" encoding="UTF-8" standalone="no"?>
<svg width="128" height="128" viewBox="0 0 128 128" fill="none" xmlns="http://www.w3.org/2000/svg">
  <!-- Background -->
  <rect width="128" height="128" rx="14" fill="#2C2C32"/>
  
  <!-- Bottom file -->
  <rect x="20" y="70" width="88" height="38" rx="4" fill="#3794FF" opacity="0.8"/>
  <rect x="28" y="80" width="50" height="4" rx="2" fill="white" opacity="0.9"/>
  <rect x="28" y="90" width="72" height="4" rx="2" fill="white" opacity="0.7"/>
  <rect x="28" y="100" width="60" height="4" rx="2" fill="white" opacity="0.7"/>
  
  <!-- Middle file -->
  <rect x="24" y="45" width="88" height="38" rx="4" fill="#3794FF" opacity="0.9"/>
  <rect x="32" y="55" width="50" height="4" rx="2" fill="white" opacity="0.9"/>
  <rect x="32" y="65" width="72" height="4" rx="2" fill="white" opacity="0.7"/>
  <rect x="32" y="75" width="60" height="4" rx="2" fill="white" opacity="0.7"/>
  
  <!-- Top file -->
  <rect x="28" y="20" width="88" height="38" rx="4" fill="#3794FF"/>
  <rect x="36" y="30" width="50" height="4" rx="2" fill="white" opacity="0.9"/>
  <rect x="36" y="40" width="72" height="4" rx="2" fill="white" opacity="0.7"/>
  <rect x="36" y="50" width="60" height="4" rx="2" fill="white" opacity="0.7"/>
</svg>
